<svg id="g12" xmlns="http://www.w3.org/2000/svg" width="156.423" height="61.116" viewBox="0 0 156.423 61.116">
  <path id="path14" d="M79.434-209.683V-270.8h4.482v61.115H79.434" transform="translate(-61.507 270.798)" />
  <path id="path16" d="M39.717-209.683V-270.8H44.2v61.115H39.717" transform="translate(-30.753 270.798)" />
  <path id="path18" d="M0-209.683V-270.8H4.482v61.115H0" transform="translate(0 270.798)" />
  <path id="path20" d="M153.376-270.8H119.151v4.482h34.225V-270.8" transform="translate(-92.26 270.798)" />
  <path id="path22" d="M153.376-231.082H119.151v4.482h34.225v-4.482" transform="translate(-92.26 240.045)" />
  <path id="path24" d="M153.376-191.364H119.151v4.482h34.225v-4.482" transform="translate(-92.26 209.291)" />
  <path id="path26" d="M123.67-117.394h-4.482A34.255,34.255,0,0,1,153.4-151.61v4.482a29.768,29.768,0,0,0-29.735,29.735" transform="translate(-92.289 178.509)" />
  <path id="path28" d="M161.348-88.219h-4.482a25.742,25.742,0,0,1,25.713-25.713v4.482a21.255,21.255,0,0,0-21.231,21.231" transform="translate(-121.464 149.334)" />
  <path id="path30" d="M199.027-59.044h-4.482a17.229,17.229,0,0,1,17.209-17.209v4.482a12.742,12.742,0,0,0-12.727,12.728" transform="translate(-150.639 120.159)" />
  <path id="path32" d="M236.705-29.869h-4.482a8.716,8.716,0,0,1,8.706-8.706v4.482a4.229,4.229,0,0,0-4.224,4.224" transform="translate(-179.814 90.984)" />
  <path id="path34" d="M336.639-220.788h-2.428v-10.294h2.428v10.294" transform="translate(-258.784 240.045)" />
  <path id="path36" d="M355.11-212.264h-2.343V-219.9h2.343v1.008a2.7,2.7,0,0,1,2.314-1.178,2.142,2.142,0,0,1,2.272,1.292,3.061,3.061,0,0,1,2.612-1.292c1.959,0,2.57,1.15,2.57,3.223v4.586h-2.343v-4c0-1.093-.057-1.988-1.178-1.988-.966,0-1.363.653-1.363,2.016v3.976h-2.342v-4c0-1.093-.057-1.988-1.179-1.988-.965,0-1.363.653-1.363,2.016v3.976" transform="translate(-273.152 231.521)" />
  <path id="path38" d="M415.452-216.083c0,1.576.767,2.186,1.69,2.186s1.7-.767,1.7-2.186-.767-2.172-1.7-2.172S415.452-217.659,415.452-216.083Zm.114-2.783a2.755,2.755,0,0,1,2.343-1.207c1.973,0,3.365,1.491,3.365,3.99s-1.391,4-3.365,4a2.755,2.755,0,0,1-2.343-1.207v3.507h-2.343V-219.9h2.343v1.036" transform="translate(-319.964 231.521)" />
  <path id="path40" d="M457.428-215.9c-1.633.156-2.726.341-2.726,1.164,0,.5.469.824,1.079.824.937,0,1.647-.4,1.647-1.8Zm-.057-1.675c0-.909-.44-1.221-1.292-1.221a1.239,1.239,0,0,0-1.363,1.121H452.53c.113-1.434,1.476-2.712,3.748-2.712,2.2,0,3.45.894,3.407,3.209l-.028,1.661v.8a11.6,11.6,0,0,0,.17,2.215h-2.3l-.028-.923a2.918,2.918,0,0,1-2.57,1.107,2.375,2.375,0,0,1-2.641-2.243c0-1.874,2.115-2.485,5.083-2.712v-.3" transform="translate(-350.213 231.763)" />
  <path id="path42" d="M497.35-217.3h-2.187a1.383,1.383,0,0,0-1.463-1.207c-.838,0-1.661.568-1.661,2.2,0,1.661.823,2.215,1.661,2.215a1.465,1.465,0,0,0,1.562-1.178h2.187a3.76,3.76,0,0,1-3.891,3c-2.513,0-3.9-1.618-3.9-4.046a3.738,3.738,0,0,1,3.9-4,3.581,3.581,0,0,1,3.791,3.024" transform="translate(-379.146 231.715)" />
  <path id="path44" d="M526.97-228.565h2.343v2.087h1.675v1.661h-1.675v3.422c0,.724.227.866,1.008.866h.667v1.69H529.5c-1.889,0-2.527-.369-2.527-2.144v-3.833h-1.207v-1.661h1.207v-2.087" transform="translate(-407.105 238.096)" />
  <path id="path46" d="M341.495-160.5a4.725,4.725,0,0,1-4.9,4.018c-3.209,0-5.154-2.044-5.154-5.338,0-3.251,2-5.31,5.224-5.31a4.607,4.607,0,0,1,4.757,4.018h-2.385a2.351,2.351,0,0,0-2.456-2.016c-1.434,0-2.57,1.207-2.57,3.308,0,2.172,1.122,3.337,2.6,3.337a2.34,2.34,0,0,0,2.5-2.016h2.385" transform="translate(-256.641 190.526)" />
  <path id="path48" d="M385.651-152.561a3.509,3.509,0,0,0-.639-.043c-1.136,0-1.718.412-1.718,1.6v3.834h-2.343V-154.8h2.258v1.448a2.157,2.157,0,0,1,2.087-1.5h.171a.768.768,0,0,1,.184.014v2.286" transform="translate(-294.976 181.026)" />
  <path id="path50" d="M406.548-151.6c0,1.6.71,2.214,1.661,2.214s1.661-.61,1.661-2.214c0-1.633-.738-2.2-1.661-2.2S406.548-153.231,406.548-151.6Zm5.708,0a3.789,3.789,0,0,1-4.047,4.032,3.789,3.789,0,0,1-4.046-4.032,3.778,3.778,0,0,1,4.046-4.018,3.778,3.778,0,0,1,4.047,4.018" transform="translate(-312.949 181.611)" />
  <path id="path52" d="M448.171-154.61l.895,5.182,1.008-5.182h2.4l-1.76,7.639h-2.726l-1.023-5.637-1.022,5.637H443.23l-1.76-7.639h2.4l1.008,5.182.88-5.182h2.413" transform="translate(-341.836 180.832)" />
  <path id="path54" d="M493.908-159.9c0,1.42.767,2.186,1.7,2.186s1.689-.61,1.689-2.186-.767-2.172-1.689-2.172S493.908-161.319,493.908-159.9Zm5.622-6.474v10.293h-2.343V-157.1a2.755,2.755,0,0,1-2.343,1.207c-1.973,0-3.365-1.505-3.365-4s1.392-3.989,3.365-3.989a2.755,2.755,0,0,1,2.343,1.206v-3.691h2.343" transform="translate(-380.56 189.94)" />
  <path id="path56" d="M333.667-99.537h-3.294v-2.13h9.044v2.13h-3.308v8.164h-2.442v-8.164" transform="translate(-255.812 139.837)" />
  <path id="path58" d="M368.867-87.686h3.308a1.44,1.44,0,0,0-1.6-1.434A1.575,1.575,0,0,0,368.867-87.686Zm5.608,2.243a3.953,3.953,0,0,1-3.805,2.584,3.847,3.847,0,0,1-4.188-4.046,3.923,3.923,0,0,1,4.089-4c2.542,0,4.089,1.917,3.933,4.643h-5.665a1.663,1.663,0,0,0,1.761,1.59,1.852,1.852,0,0,0,1.718-.767h2.158" transform="translate(-283.772 131.508)" />
  <path id="path60" d="M413.746-87.885H411.56a1.384,1.384,0,0,0-1.462-1.207c-.838,0-1.661.568-1.661,2.2,0,1.661.823,2.215,1.661,2.215a1.465,1.465,0,0,0,1.562-1.178h2.187a3.761,3.761,0,0,1-3.891,3c-2.513,0-3.9-1.619-3.9-4.046a3.738,3.738,0,0,1,3.9-4,3.581,3.581,0,0,1,3.791,3.024" transform="translate(-314.411 131.508)" />
  <path id="path62" d="M447.9-98a2.732,2.732,0,0,1,2.371-1.178c1.959,0,2.57,1.15,2.57,3.223v4.586H450.5v-4c0-1.093-.029-1.988-1.164-1.988-1.008,0-1.434.653-1.434,2.073v3.918h-2.343v-10.293H447.9V-98" transform="translate(-345 139.837)" />
  <path id="path64" d="M486.965-89.479a2.731,2.731,0,0,1,2.371-1.178c1.96,0,2.57,1.15,2.57,3.223v4.586h-2.343v-4c0-1.093-.043-1.988-1.178-1.988-1.008,0-1.42.653-1.42,2.073v3.918h-2.343v-7.638h2.343v1.008" transform="translate(-375.25 131.312)" />
  <path id="path66" d="M524.06-86.891c0,1.6.71,2.215,1.661,2.215s1.661-.611,1.661-2.215c0-1.633-.738-2.2-1.661-2.2S524.06-88.524,524.06-86.891Zm5.707,0a3.789,3.789,0,0,1-4.047,4.032,3.789,3.789,0,0,1-4.046-4.032,3.778,3.778,0,0,1,4.046-4.018,3.778,3.778,0,0,1,4.047,4.018" transform="translate(-403.94 131.508)" />
  <path id="path68" d="M565.284-91.373h-2.343v-10.293h2.343v10.293" transform="translate(-435.893 139.837)" />
  <path id="path70" d="M581.117-86.891c0,1.6.71,2.215,1.661,2.215s1.661-.611,1.661-2.215c0-1.633-.738-2.2-1.661-2.2S581.117-88.524,581.117-86.891Zm5.708,0a3.789,3.789,0,0,1-4.047,4.032,3.789,3.789,0,0,1-4.046-4.032,3.778,3.778,0,0,1,4.046-4.018,3.778,3.778,0,0,1,4.047,4.018" transform="translate(-448.12 131.508)" />
  <path id="path72" d="M620.729-86.895c0,1.363.767,1.959,1.7,1.959s1.69-.483,1.69-1.959c0-1.5-.766-1.945-1.69-1.945S620.729-88.244,620.729-86.895Zm3.294-3.592h2.329v6.616c0,2.839-1.8,3.691-3.919,3.691-2.257,0-3.592-1.221-3.819-2.626h2.2c.185.667.738.98,1.59.98,1.193,0,1.618-.582,1.618-1.59v-.908a2.761,2.761,0,0,1-2.357,1.207c-1.973,0-3.365-1.349-3.365-3.776s1.391-3.762,3.365-3.762a2.76,2.76,0,0,1,2.357,1.207v-1.037" transform="translate(-478.759 131.312)" />
  <path id="path74" d="M658.6-79.779v-1.689h.469c.966,0,1.164-.071,1.391-.639l.071-.2-2.854-7.6h2.569l1.406,4.785,1.5-4.785h2.513l-3,7.638c-.767,1.945-1.334,2.485-3.322,2.485H658.6" transform="translate(-509.251 130.728)" />
</svg>
