<svg xmlns="http://www.w3.org/2000/svg" xmlns:xlink="http://www.w3.org/1999/xlink" width="93" height="198" viewBox="0 0 93 198">
  <defs>
    <clipPath id="clip-path">
      <rect id="Rectangle_492" data-name="Rectangle 492" width="93" height="198" transform="translate(286 426)" fill="#fff" stroke="#707070" stroke-width="1"/>
    </clipPath>
  </defs>
  <g id="Mask_Group_241" data-name="Mask Group 241" transform="translate(-286 -426)" clip-path="url(#clip-path)">
    <g id="Online_payment_processing_for_internet_businesses_-_Stripe-30" data-name="Online payment processing for internet businesses - Stripe-30" transform="translate(250.346 462.346)">
      <path id="Path_18" data-name="Path 18" d="M63,10A53,53,0,1,1,10,63,53,53,0,0,1,63,10Z" fill="#69d5f8"/>
      <path id="Path_19" data-name="Path 19" d="M46.714,78.4V48H33.927a2.367,2.367,0,0,0-1.672.694L13.726,67.339A3.565,3.565,0,0,0,12.711,70.3,51.571,51.571,0,0,0,57.135,114.73a3.565,3.565,0,0,0,2.955-1.014l18.7-18.453a2.363,2.363,0,0,0,.691-1.672l-.007-12.83-30.4,0A2.365,2.365,0,0,1,46.714,78.4Z" transform="translate(-0.098 -1.384)" fill="#fff"/>
      <path id="Path_20" data-name="Path 20" d="M116.944,56.339,94.583,78.7a2.368,2.368,0,0,1-1.673.694H80.755V49a2.365,2.365,0,0,0-2.364-2.366H48l0-12.154a2.368,2.368,0,0,1,.692-1.673L71.058,10.45A53,53,0,0,1,116.944,56.339Z" transform="translate(-1.384 -0.016)" fill="#217ab7"/>
    </g>
  </g>
</svg>
