<svg id="g12" xmlns="http://www.w3.org/2000/svg" width="41.598" height="41.598" viewBox="0 0 41.598 41.598">
  <path id="path14" d="M79.434-229.2v-41.6h3.051v41.6H79.434" transform="translate(-67.232 270.798)" />
  <path id="path16" d="M39.717-229.2v-41.6h3.051v41.6H39.717" transform="translate(-33.616 270.798)" />
  <path id="path18" d="M0-229.2v-41.6H3.051v41.6H0" transform="translate(0 270.798)" />
  <path id="path20" d="M142.446-270.8h-23.3v3.051h23.3V-270.8" transform="translate(-100.848 270.798)" />
  <path id="path22" d="M142.446-231.082h-23.3v3.051h23.3v-3.051" transform="translate(-100.848 237.183)" />
  <path id="path24" d="M142.446-191.364h-23.3v3.051h23.3v-3.051" transform="translate(-100.848 203.566)" />
  <path id="path26" d="M122.239-128.321h-3.05a23.316,23.316,0,0,1,23.289-23.29v3.051a20.262,20.262,0,0,0-20.239,20.239" transform="translate(-100.879 169.919)" />
  <path id="path28" d="M159.917-96.43h-3.051a17.521,17.521,0,0,1,17.5-17.5v3.051A14.467,14.467,0,0,0,159.917-96.43" transform="translate(-132.769 138.028)" />
  <path id="path30" d="M197.6-64.539h-3.051a11.727,11.727,0,0,1,11.714-11.714v3.05a8.673,8.673,0,0,0-8.663,8.663" transform="translate(-164.66 106.138)" />
  <path id="path32" d="M235.274-32.649h-3.051a5.932,5.932,0,0,1,5.926-5.926v3.051a2.878,2.878,0,0,0-2.875,2.875" transform="translate(-196.551 74.247)" />
</svg>
