<svg id="Component_6_1" data-name="Component 6 – 1" xmlns="http://www.w3.org/2000/svg" width="42.056" height="36.084" viewBox="0 0 42.056 36.084">
  <g id="Group_357" data-name="Group 357" transform="translate(14.928 14.342)">
    <path id="Path_5" data-name="Path 5" d="M183.464,199.765a1.279,1.279,0,0,0,1.84-1.777l-.031-.031-5.424-5.425a1.279,1.279,0,0,0-1.809,0l0,0-5.424,5.425a1.279,1.279,0,1,0,1.777,1.84l.031-.031,3.242-3.243v16.1a1.279,1.279,0,1,0,2.558,0v-16.1Zm0,0" transform="translate(-172.223 -192.156)" fill="#b4b8c5"/>
  </g>
  <g id="Group_360" data-name="Group 360" transform="translate(-938.823 -1339.273)">
    <g id="Group_358" data-name="Group 358" transform="translate(938.823 1339.273)">
      <path id="Path_4" data-name="Path 4" d="M33.964,10.292A13.149,13.149,0,0,0,18.487.249,12.979,12.979,0,0,0,8.156,10.285,9.014,9.014,0,0,0,.061,20.2a9.122,9.122,0,0,0,9.157,7.928H15.8a1.28,1.28,0,1,0,0-2.558H9.217a6.4,6.4,0,1,1,.078-12.79A1.3,1.3,0,0,0,10.6,11.646,10.464,10.464,0,0,1,22.269,2.657a10.383,10.383,0,0,1,9.247,8.988A1.384,1.384,0,0,0,32.9,12.784a6.4,6.4,0,1,1,0,12.79H26.323a1.28,1.28,0,1,0,0,2.558H32.9a9.081,9.081,0,0,0,9.153-9.008A9.048,9.048,0,0,0,33.964,10.292Zm0,0" transform="translate(0.001 0)" fill="#b4b8c5"/>
    </g>
  </g>
</svg>
