<svg id="Online_payment_processing_for_internet_businesses_-_Stripe-15_1_" data-name="Online payment processing for internet businesses - Stripe-15 (1)" xmlns="http://www.w3.org/2000/svg" width="274" height="274" viewBox="0 0 274 274">
  <circle id="Ellipse_7" data-name="Ellipse 7" cx="137" cy="137" r="137" fill="#6772e5"/>
  <path id="Path_24" data-name="Path 24" d="M118.405,0A137,137,0,0,0,1.23,66.082L18.8,59.8a3.224,3.224,0,0,1,3.868,1.289l3.385,5a3.385,3.385,0,0,0,5.158,0l13.7-16.118h0l2.579-4.835a3.062,3.062,0,0,0-1.612-3.707l-2.9-1.934a2.9,2.9,0,0,1,0-4.835l15.312-9.832,5.319,2.74L57,37.393l21.92-8.542a3.385,3.385,0,0,1,3.224,0l6.608,4.674L63.283,44.162a2.74,2.74,0,0,0-1.289,1.612L57.8,52.06a3.079,3.079,0,0,0,4.191,4.513L71.5,53.188h1.451l10.8,1.128a3.062,3.062,0,0,0,2.256,0l18.7-14.022a2.9,2.9,0,0,0,0-4.191L94.39,19.986a3.062,3.062,0,0,1,3.385-4.835l28.689-4.674a3.546,3.546,0,0,1,1.934,0l19.664,9.671a3.546,3.546,0,0,1,1.612,1.612l2.256,5.319a3.062,3.062,0,0,1-2.418,4.029l-13.7,2.1,9.671,6.286a3.062,3.062,0,0,1,.806,4.191L135.974,58.185a3.224,3.224,0,0,1-3.224,1.289l-14.506-2.1a3.546,3.546,0,0,0-2.418,0l-18.7,13.7a2.9,2.9,0,0,0-.967,3.546l2.9,7.092a3.062,3.062,0,0,1-1.289,3.546l-3.546,3.224A3.224,3.224,0,0,1,89.555,87.2l-3.062-6.608a3.224,3.224,0,0,0-5-1.128L72.47,86.552a3.062,3.062,0,0,0-1.128,2.9l2.1,12.894a3.224,3.224,0,0,1-3.062,3.546H65.539a3.224,3.224,0,0,0-3.546,1.773l-4.029,18.858a2.9,2.9,0,0,1-1.128,2.418L36.205,145.059a2.74,2.74,0,0,0-1.128,1.773L29.758,167.3a2.74,2.74,0,0,0,0,2.418l16.118,19.664a3.224,3.224,0,0,0,2.1,1.128l32.235,4.674a3.224,3.224,0,0,1,2.579,1.934l11.444,26.111a3.062,3.062,0,0,1,0,2.418l-3.546,8.7a3.062,3.062,0,0,0,0,3.224L106.8,253.692a3.385,3.385,0,0,0,3.224.967l32.235-7.9a3.062,3.062,0,0,0,2.418-2.9v-6.286A3.062,3.062,0,0,1,146.289,235l9.509-5a3.223,3.223,0,0,0,1.612-2.74V211.141a2.9,2.9,0,0,1,0-1.773l18.213-23.854a3.062,3.062,0,0,0-3.385-4.835l-8.22,2.1a3.385,3.385,0,0,1-3.385-1.128l-24.176-29.818,4.674-2.74a3.385,3.385,0,0,1,4.029,0L165.146,169.4a3.385,3.385,0,0,0,4.513,0l12.411-10.638a3.062,3.062,0,0,0,0-4.674l-14.022-11.6,1.451-4.513,16.118,5.48a3.224,3.224,0,0,0,2.1,0l12.411-3.868a3.546,3.546,0,0,1,2.418,0l9.832,5a3.062,3.062,0,0,1,1.612,1.773l5.8,16.118a3.224,3.224,0,0,0,3.868,1.934l4.835-1.128a3.062,3.062,0,0,0,2.256-3.707l-4.191-14.828a2.418,2.418,0,0,1,0-1.612l5.158-18.213A3.224,3.224,0,0,1,235.9,123.3l4.835,1.612a125.078,125.078,0,0,1,13.7,7.414A137,137,0,0,0,118.405,0Zm26.272,136.516a3.546,3.546,0,0,1-4.029,3.224l-23.371-2.1a2.9,2.9,0,0,0-2.579,1.128l-2.579,3.546a3.062,3.062,0,0,1-3.546.806L87.943,142a3.546,3.546,0,0,1-3.062-4.835l3.707-8.22a3.546,3.546,0,0,0-3.062-4.835h-8.7a3.385,3.385,0,0,1-1.612-6.286l14.184-8.865a3.868,3.868,0,0,1,4.835.322l7.092,9.832a3.224,3.224,0,0,1,0,2.579l-.806,7.253h5.8a3.385,3.385,0,0,0,2.74-4.835l-9.348-19.019h8.22a3.707,3.707,0,0,1,2.418,1.773l9.026,16.118a3.868,3.868,0,0,0,2.9,1.773l18.213,1.612a3.546,3.546,0,0,1,3.224,3.546Zm2.74-22.726-9.509,1.289a3.546,3.546,0,0,1-4.029-4.352l1.612-5.158a3.707,3.707,0,0,1,5.158-2.1l7.736,3.868a3.385,3.385,0,0,1-1.128,6.447Z" transform="translate(18.595)" fill="#87bbfd"/>
</svg>
