<svg xmlns="http://www.w3.org/2000/svg" xmlns:xlink="http://www.w3.org/1999/xlink" width="93" height="198" viewBox="0 0 93 198">
  <defs>
    <clipPath id="clip-path">
      <rect id="Rectangle_496" data-name="Rectangle 496" width="93" height="198" fill="#fff" stroke="#707070" stroke-width="1"/>
    </clipPath>
  </defs>
  <g id="Mask_Group_242" data-name="Mask Group 242" clip-path="url(#clip-path)">
    <g id="Online_payment_processing_for_internet_businesses_-_Stripe-4" data-name="Online payment processing for internet businesses - Stripe-4" transform="translate(-30.813 43.687)">
      <path  id="Path_21" data-name="Path 21" d="M54.981,109.751a47.919,47.919,0,0,1-16.494-2.52v-26.8H9.164v4.811A55.883,55.883,0,0,1,0,54.769,55.046,55.046,0,0,1,42.152,1.162V8.952H75.141v-5.5a55.079,55.079,0,0,1-20.16,106.3Z" transform="translate(0 0.212)" fill="#beb0f4"/>
      <path  id="Path_22" data-name="Path 22" d="M103.511,54.981H74.187V95.3H39.366V108.13A55.979,55.979,0,0,1,5.231,80.639c4.811-15.12,18.327-24.971,34.134-25.658V1.833A64.238,64.238,0,0,1,54.027,0,53.863,53.863,0,0,1,76.02,4.353V22.68a26.989,26.989,0,0,0,23.367,26.8,5.7,5.7,0,0,1,4.124,5.5Z" transform="translate(0.954 0)" fill="#7356b6"/>
      <path  id="Path_23" data-name="Path 23" d="M103.051,53.78a4.985,4.985,0,0,1-4.124,5.04C85.64,61.111,75.56,72.107,75.56,85.623V97.765a51.567,51.567,0,0,1-21.993,5.04,45.622,45.622,0,0,1-14.662-2.291V90.434c0-16.036,13.287-29.782,28.636-31.614A5.152,5.152,0,0,0,71.9,53.78ZM7.75,34.765A50.6,50.6,0,0,1,38.906,6.587V17.126c0,16.036,13.287,29.323,28.636,31.614A5.152,5.152,0,0,1,71.9,53.78h-32.3A36.736,36.736,0,0,1,7.75,34.765Z" transform="translate(1.414 1.202)" fill="#fff"/>
    </g>
  </g>
</svg>


